# AST/ASF file generated using VICON BodyLanguage
# -----------------------------------------------
:version 1.10
:name VICON
:units
  mass 1.0
  length 0.45
  angle deg
:documentation
   .ast/.asf automatically generated from VICON data using
   VICON BodyBuilder and BodyLanguage model FoxedUp or BRILLIANT.MOD
:root
   order TX TY TZ RX RY RZ
   axis XYZ
   position 0 0 0  
   orientation 0 0 0 
:bonedata
  begin
     id 1 
     name lhipjoint
     direction 0.606768 -0.715223 0.346827 
     length 2.41543 
     axis 0 0 0  XYZ
  end
  begin
     id 2 
     name lfemur
     direction 0.34202 -0.939693 0  
     length 7.2778  
     axis 0 0 20  XYZ
    dof rx ry rz
    limits (-160.0 20.0)
           (-70.0 70.0)
           (-60.0 70.0)
  end
  begin
     id 3 
     name ltibia
     direction 0.34202 -0.939693 0   
     length 7.61811   
     axis 0 0 20   XYZ
    dof rx
    limits (-10.0 170.0)
  end
  begin
     id 4 
     name lfoot
     direction 0.0823924 -0.226371 0.97055   
     length 2.33618   
     axis -90 7.62852e-016 20   XYZ
    dof rx rz
    limits (-45.0 90.0)
           (-70.0 20.0)
  end
  begin
     id 5 
     name ltoes
     direction 1.53554e-011 -4.21934e-011 1   
     length 1.17015   
     axis -90 7.62852e-016 20   XYZ
    dof rx
    limits (-90.0 20.0)
  end
  begin
     id 6 
     name rhipjoint
     direction -0.6077 -0.714582 0.346516   
     length 2.4176  
     axis 0 0 0  XYZ 
  end
  begin
     id 7 
     name rfemur
     direction -0.34202 -0.939693 0   
     length 7.28127   
     axis 0 0 -20   XYZ
    dof rx ry rz
    limits (-160.0 20.0)
           (-70.0 70.0)
           (-70.0 60.0)
  end
  begin
     id 8 
     name rtibia
     direction -0.34202 -0.939693 0   
     length 7.77648   
     axis 0 0 -20   XYZ
    dof rx
    limits (-10.0 170.0)
 end
 begin
     id 9 
     name rfoot
     direction -0.0809463 -0.222398 0.97159   
     length 2.37533  
     axis -90 -7.62852e-016 -20   XYZ
    dof rx rz
    limits (-45.0 90.0)
           (-20.0 70.0)
  end
  begin
     id 10 
     name rtoes
     direction -1.53568e-011 -4.21714e-011 1   
     length 1.18972   
     axis -90 -7.62852e-016 -20   XYZ
    dof rx
    limits (-90.0 20.0)
  end
  begin
     id 11 
     name lowerback
     direction 0.010968 0.991932 -0.126297   
     length 2.21698   
     axis 0 0 0   XYZ
    dof rx ry rz
    limits (-20.0 45.0)
           (-30.0 30.0)
           (-30.0 30.0)
  end
  begin
     id 12 
     name upperback
     direction 0.0167007 0.997503 -0.0686276   
     length 2.22371   
     axis 0 0 0   XYZ
    dof rx ry rz
    limits (-20.0 45.0)
           (-30.0 30.0)
           (-30.0 30.0)
  end
  begin
     id 13 
     name thorax
     direction 0.0111721 0.999885 -0.0102878   
     length 2.25242   
     axis 0 0 0   XYZ
    dof rx ry rz
    limits (-20.0 45.0)
           (-30.0 30.0)
           (-30.0 30.0)
  end
  begin
     id 14 
     name lowerneck
     direction -0.0120265 0.990428 0.137508   
     length 1.57674   
     axis 0 0 0   XYZ
    dof rx ry rz
    limits (-20.0 45.0)
           (-30.0 30.0)
           (-30.0 30.0)
  end
  begin
     id 15 
     name upperneck
     direction 0.0175669 0.998907 0.0433089   
     length 1.5618   
     axis 0 0 0   XYZ
    dof rx ry rz
    limits (-20.0 45.0)
           (-30.0 30.0)
           (-30.0 30.0)
  end
  begin
     id 16
     name head
     direction 0.00754609 0.99997 0.00185367  
     length 1.60579  
     axis 0 0 0   XYZ
    dof rx ry rz
    limits (-20.0 45.0)
           (-30.0 30.0)
           (-30.0 30.0)
  end
  begin
     id 17 
     name lclavicle
     direction 0.885866 0.429166 -0.176231  
     length 3.44967  
     axis 0 0 0   XYZ
    dof ry rz
    limits (-20.0 10.0)
           (0.0 20.0)
  end
  begin
     id 18 
     name lhumerus
     direction 1 -4.48973e-011 -1.90255e-027   
     length 5.20607   
     axis 180 -30 -90   XYZ
    dof rx ry rz
    limits (-60.0 90.0)
           (-90.0 90.0)
           (-90.0 90.0)
  end
  begin
     id 19
     name lradius
     direction 1 -4.48956e-011 9.87925e-027   
     length 3.39961   
     axis 180 -30 -90   XYZ
    dof rx
    limits (-10.0 170.0)
  end
  begin
     id 20
     name lwrist
     direction 1 -4.48985e-011 1.73247e-026   
     length 1.6998   
     axis -9.60847e-015 90 90   XYZ
    dof ry
    limits (-180.0 0.0)
 end
  begin
     id 21 
     name lhand
     direction 1 -4.48798e-011 3.46119e-026   
     length 0.519693   
     axis -2.21073e-014 90 90   XYZ
    dof rx rz
    limits (-90.0 90.0)
           (-45.0 45.0)
  end
  begin
     id 22 
     name lfingers
     direction 1 -4.48938e-011 6.92797e-026   
     length 0.41899   
     axis -4.42155e-014 90 90   XYZ
    dof rx
    limits (0.0 90.0)
  end
  begin
     id 23
     name lthumb
     direction 0.707107 -6.34952e-011 0.707107   
     length 0.601588   
     axis -90 45 6.0103e-014   XYZ
    dof rx rz
    limits (-45.0 45.0)
           (-45.0 45.0)
  end
  begin
     id 24 
     name rclavicle
     direction -0.866736 0.456792 -0.200276   
     length 3.45032  
     axis 0 0 0   XYZ 
    dof ry rz
    limits (-10.0 20.0)
           (-20.0 0.0)
  end
  begin
     id 25 
     name rhumerus
     direction -1 -4.4897e-011 8.65094e-028  
     length 5.32214   
     axis 180 30 90   XYZ
    dof rx ry rz
    limits (-90.0 60.0)
           (-90.0 90.0)
           (-90.0 90.0)
  end
  begin
     id 26 
     name rradius
     direction -1 -4.48987e-011 1.08427e-026   
     length 3.51208   
     axis 180 30 90   XYZ
    dof rx
    limits (-10.0 170.0)
  end
  begin
     id 27 
     name rwrist
     direction -1 -4.48961e-011 1.73222e-026   
     length 1.75604   
     axis -9.60847e-015 -90 -90   XYZ
    dof ry
    limits (-180.0 0.0)
  end
  begin
     id 28
     name rhand
     direction -1 -4.48895e-011 3.46314e-026   
     length 0.586681   
     axis -2.21073e-014 -90 -90   XYZ
    dof rx rz
    limits (-90.0 90.0)
           (-45.0 45.0)
  end
  begin
     id 29
     name rfingers
     direction -1 -4.48968e-011 6.92916e-026   
     length 0.472997   
     axis -4.42155e-014 -90 -90   XYZ
    dof rx
    limits (0.0 90.0)
  end
  begin
     id 30
     name rthumb
     direction -0.707107 -6.34848e-011 0.707107   
     length 0.679133   
     axis -90 -45 -6.0103e-014   XYZ
    dof rx rz
    limits (-45.0 45.0)
           (-45.0 45.0)
  end
:hierarchy
  begin
    root lhipjoint rhipjoint lowerback
    lhipjoint lfemur
    lfemur ltibia
    ltibia lfoot
    lfoot ltoes
    rhipjoint rfemur
    rfemur rtibia
    rtibia rfoot
    rfoot rtoes
    lowerback upperback
    upperback thorax
    thorax lowerneck lclavicle rclavicle
    lowerneck upperneck
    upperneck head
    lclavicle lhumerus
    lhumerus lradius
    lradius lwrist
    lwrist lhand lthumb
    lhand lfingers
    rclavicle rhumerus
    rhumerus rradius
    rradius rwrist
    rwrist rhand rthumb
    rhand rfingers
  end

#!OML:ASF H:\Dans Jumps\Project 1\Capture day 1\Session 1\subject.ASF
:FULLY-SPECIFIED
:DEGREES
41
root 0.281091 17.527 -14.2901 6.60738 0.107233 -1.42466
lowerback -1.90531 -0.76235 0.514871
upperback 5.00564 -1.13551 1.6103
thorax 6.28666 -0.581896 1.3034
lowerneck -10.8824 0.310616 -2.55058
upperneck 36.4802 0.698103 1.13527
head 14.3011 0.0947916 1.02115
rclavicle 1.32192e-014 -6.36111e-015
rhumerus -18.9958 -17.5033 -82.6037
rradius 26.1767
rwrist 31.3463
rhand -18.4386 -26.9861
rfingers 7.12502
rthumb 7.84699 -56.8205
lclavicle 1.32192e-014 -6.36111e-015
lhumerus -16.3384 -3.12323 89.4864
lradius 20.9998
lwrist 2.43383
lhand -23.2846 -3.3947
lfingers 7.12502
lthumb 3.16822 26.5615
rfemur -13.9869 -2.48364 19.2537
rtibia 21.5881
rfoot -13.5441 -2.2739
rtoes 5.96266
lfemur -13.395 7.79853 -17.141
ltibia 18.5844
lfoot -10.3288 3.62748
ltoes -10.9341
42
root 0.287214 17.5273 -14.2915 6.61615 0.0744481 -1.4209
lowerback -1.92379 -0.760466 0.507606
upperback 5.00499 -1.1326 1.60426
thorax 6.29656 -0.580646 1.30117
lowerneck -10.9004 0.327869 -2.53168
upperneck 36.4751 0.721752 1.12771
head 14.3023 0.106447 1.01824
rclavicle -4.96962e-015 0
rhumerus -19.0103 -17.4726 -82.6991
rradius 26.1785
rwrist 31.3285
rhand -18.3915 -26.9309
rfingers 7.12502
rthumb 7.89244 -56.7636
lclavicle -4.96962e-015 0
lhumerus -16.3085 -3.02987 89.4363
lradius 20.9105
lwrist 2.31477
lhand -23.2861 -3.38986
lfingers 7.12502
lthumb 3.16679 26.5664
rfemur -14.0086 -2.45685 19.2275
rtibia 21.5914
rfoot -13.5314 -2.29279
rtoes 5.89005
lfemur -13.4019 7.86025 -17.1698
ltibia 18.5764
lfoot -10.3501 3.5985
ltoes -10.9531
43
root 0.293167 17.5274 -14.2932 6.62512 0.0484324 -1.41852
lowerback -1.93646 -0.760343 0.500656
upperback 5.00542 -1.13211 1.60062
thorax 6.30438 -0.580652 1.30116
lowerneck -10.9227 0.345076 -2.51315
upperneck 36.4718 0.74559 1.12012
head 14.3053 0.118115 1.01547
rclavicle -4.17448e-015 -1.39149e-015
rhumerus -19.02 -17.4337 -82.7913
rradius 26.179
rwrist 31.3143
rhand -18.351 -26.8662
rfingers 7.12502
rthumb 7.93159 -56.6974
lclavicle -4.17448e-015 -1.39149e-015
lhumerus -16.2789 -2.92365 89.3863
lradius 20.8222
lwrist 2.19367
lhand -23.2922 -3.35929
lfingers 7.12502
lthumb 3.16088 26.597
rfemur -14.0303 -2.43076 19.2036
rtibia 21.5944
rfoot -13.5188 -2.31479
rtoes 5.83102
lfemur -13.4143 7.91118 -17.1963
ltibia 18.5744
lfoot -10.3704 3.57754
ltoes -10.9867
44
root 0.298941 17.5275 -14.2952 6.63359 0.0270002 -1.41889
lowerback -1.94175 -0.761327 0.494484
upperback 5.00603 -1.1332 1.60021
thorax 6.30821 -0.581496 1.30405
lowerneck -10.9482 0.362188 -2.49762
upperneck 36.47 0.76982 1.11359
head 14.3097 0.129673 1.01377
rclavicle 3.47873e-015 -4.37326e-015
rhumerus -19.0291 -17.3756 -82.8813
rradius 26.1844
rwrist 31.2867
rhand -18.3124 -26.8219
rfingers 7.12502
rthumb 7.96882 -56.6517
lclavicle 3.47873e-015 -4.37326e-015
lhumerus -16.2499 -2.80588 89.3368
lradius 20.7321
lwrist 2.06895
lhand -23.3063 -3.32903
lfingers 7.12502
lthumb 3.14727 26.6275
rfemur -14.0514 -2.40186 19.1833
rtibia 21.5968
rfoot -13.5065 -2.34084
rtoes 5.77655
lfemur -13.431 7.95263 -17.2191
ltibia 18.5778
lfoot -10.3884 3.56791
ltoes -11.0367
45
root 0.304684 17.5276 -14.2972 6.64095 0.0096574 -1.41884
lowerback -1.93911 -0.763305 0.488551
upperback 5.00518 -1.13554 1.60098
thorax 6.30597 -0.582977 1.30803
lowerneck -10.9707 0.379208 -2.48431
upperneck 36.4681 0.793794 1.10876
head 14.3134 0.141058 1.01311
rclavicle 1.19271e-014 -4.96962e-015
rhumerus -19.0427 -17.3046 -82.967
rradius 26.1964
rwrist 31.2497
rhand -18.2751 -26.7789
rfingers 7.12502
rthumb 8.00479 -56.6073
lclavicle 1.19271e-014 -4.96962e-015
lhumerus -16.2206 -2.67771 89.2863
lradius 20.6338
lwrist 1.94067
lhand -23.3226 -3.31797
lfingers 7.12502
lthumb 3.1316 26.6388
rfemur -14.0706 -2.37696 19.1627
rtibia 21.5989
rfoot -13.4957 -2.36435
rtoes 5.72828
lfemur -13.4487 7.98077 -17.2419
ltibia 18.5848
lfoot -10.4041 3.57392
ltoes -11.104
46
root 0.310458 17.5276 -14.2994 6.64655 -0.00587621 -1.4185
lowerback -1.92978 -0.765112 0.483139
upperback 5.00379 -1.13764 1.6031
thorax 6.2993 -0.584349 1.31323
lowerneck -10.9865 0.395335 -2.47866
upperneck 36.462 0.816053 1.11009
head 14.3136 0.151546 1.01599
rclavicle 1.19271e-014 -1.07344e-014
rhumerus -19.06 -17.228 -83.0463
rradius 26.2128
rwrist 31.2132
rhand -18.2428 -26.7482
rfingers 7.12502
rthumb 8.03602 -56.5754
lclavicle 1.19271e-014 -1.07344e-014
lhumerus -16.1854 -2.53979 89.2351
lradius 20.5218
lwrist 1.80467
lhand -23.334 -3.31648
lfingers 7.12502
lthumb 3.12059 26.6404
rfemur -14.0872 -2.35642 19.1415
rtibia 21.5996
rfoot -13.4845 -2.38363
rtoes 5.68153
lfemur -13.4665 7.99899 -17.2655
ltibia 18.5956
lfoot -10.4168 3.59523
ltoes -11.1937
47
root 0.316251 17.5276 -14.3015 6.65177 -0.0206191 -1.41712
lowerback -1.91495 -0.766372 0.477443
upperback 5.0007 -1.13893 1.60623
thorax 6.2877 -0.585357 1.31976
lowerneck -10.9957 0.411226 -2.47566
upperneck 36.453 0.83797 1.11283
head 14.3109 0.16177 1.01978
rclavicle 1.2921e-015 3.97569e-015
rhumerus -19.0814 -17.1513 -83.1174
rradius 26.2296
rwrist 31.1806
rhand -18.2156 -26.7288
rfingers 7.12502
rthumb 8.06223 -56.555
lclavicle 1.2921e-015 3.97569e-015
lhumerus -16.1473 -2.39058 89.1831
lradius 20.3969
lwrist 1.65561
lhand -23.3455 -3.32159
lfingers 7.12502
lthumb 3.10943 26.6355
rfemur -14.1026 -2.34213 19.1189
rtibia 21.5987
rfoot -13.4726 -2.39674
rtoes 5.63622
lfemur -13.4849 8.00849 -17.2906
ltibia 18.6092
lfoot -10.4265 3.6298
ltoes -11.2889
48
root 0.321998 17.5275 -14.3037 6.65515 -0.03524 -1.41988
lowerback -1.89434 -0.765129 0.478008
upperback 4.99715 -1.13713 1.61002
thorax 6.27208 -0.584541 1.32377
lowerneck -10.9968 0.425192 -2.47418
upperneck 36.4391 0.856091 1.11871
head 14.3041 0.170673 1.02445
rclavicle -3.08116e-015 -6.16232e-015
rhumerus -19.1064 -17.0872 -83.1807
rradius 26.2455
rwrist 31.1559
rhand -18.1928 -26.7173
rfingers 7.12502
rthumb 8.08423 -56.5427
lclavicle -3.08116e-015 -6.16232e-015
lhumerus -16.1067 -2.23229 89.1299
lradius 20.2623
lwrist 1.49355
lhand -23.3549 -3.33245
lfingers 7.12502
lthumb 3.10036 26.6248
rfemur -14.1158 -2.33009 19.1009
rtibia 21.5957
rfoot -13.4586 -2.40619
rtoes 5.59117
lfemur -13.5029 8.01322 -17.3109
ltibia 18.6264
lfoot -10.4328 3.67188
ltoes -11.3888
49
root 0.3277 17.5275 -14.3058 6.65721 -0.0479213 -1.42322
lowerback -1.87039 -0.763211 0.480184
upperback 4.99412 -1.1345 1.61469
thorax 6.25507 -0.583265 1.32789
lowerneck -10.9957 0.43825 -2.47287
upperneck 36.4224 0.873074 1.12404
head 14.2956 0.179049 1.02871
rclavicle -9.0447e-015 6.55989e-015
rhumerus -19.134 -17.0326 -83.2357
rradius 26.2618
rwrist 31.138
rhand -18.1731 -26.7191
rfingers 7.12502
rthumb 8.10328 -56.5437
lclavicle -9.0447e-015 6.55989e-015
lhumerus -16.0674 -2.0665 89.0772
lradius 20.1233
lwrist 1.31773
lhand -23.3774 -3.35971
lfingers 7.12502
lthumb 3.07861 26.5978
rfemur -14.126 -2.32534 19.0839
rtibia 21.5907
rfoot -13.4432 -2.40903
rtoes 5.55689
lfemur -13.522 8.0184 -17.3306
ltibia 18.6471
lfoot -10.4387 3.71482
ltoes -11.4893
50
root 0.333258 17.5274 -14.3079 6.65801 -0.0595711 -1.43105
lowerback -1.84558 -0.759727 0.487231
upperback 4.99421 -1.13012 1.62046
thorax 6.24077 -0.580923 1.33056
lowerneck -10.9945 0.45031 -2.46965
upperneck 36.4009 0.888065 1.12943
head 14.2849 0.18692 1.0323
rclavicle 5.96354e-016 6.95746e-015
rhumerus -19.1611 -16.9787 -83.2863
rradius 26.2814
rwrist 31.1142
rhand -18.1616 -26.7282
rfingers 7.12502
rthumb 8.11441 -56.5524
lclavicle 5.96354e-016 6.95746e-015
lhumerus -16.0279 -1.9018 89.0242
lradius 19.9877
lwrist 1.13754
lhand -23.4078 -3.39887
lfingers 7.12502
lthumb 3.04927 26.5591
rfemur -14.1341 -2.32111 19.0724
rtibia 21.5836
rfoot -13.4252 -2.40988
rtoes 5.53465
lfemur -13.5427 8.02378 -17.3446
ltibia 18.6717
lfoot -10.4432 3.75865
ltoes -11.5973
51
root 0.338674 17.5274 -14.3101 6.65825 -0.0707907 -1.44137
lowerback -1.82255 -0.755175 0.496141
upperback 4.99838 -1.12457 1.62738
thorax 6.23178 -0.577953 1.33344
lowerneck -10.9968 0.461734 -2.46215
upperneck 36.3774 0.902688 1.13046
head 14.2741 0.194677 1.03329
rclavicle 4.96962e-015 -7.95139e-016
rhumerus -19.1842 -16.9264 -83.3319
rradius 26.3014
rwrist 31.0899
rhand -18.1471 -26.7373
rfingers 7.12502
rthumb 8.12835 -56.561
lclavicle 4.96962e-015 -7.95139e-016
lhumerus -15.9855 -1.73531 88.9716
lradius 19.8563
lwrist 0.957579
lhand -23.4354 -3.42364
lfingers 7.12502
lthumb 3.0226 26.5347
rfemur -14.1406 -2.31705 19.0643
rtibia 21.5755
rfoot -13.4071 -2.40906
rtoes 5.52419
lfemur -13.5649 8.03296 -17.3554
ltibia 18.6988
lfoot -10.4476 3.80294
ltoes -11.7243
52
root 0.343906 17.5273 -14.3124 6.65951 -0.0822491 -1.45404
lowerback -1.80473 -0.750616 0.50536
upperback 5.0078 -1.11931 1.6361
thorax 6.23142 -0.575175 1.33792
lowerneck -11.0088 0.474392 -2.44899
upperneck 36.3542 0.920526 1.12433
head 14.2657 0.203634 1.03092
rclavicle -1.38155e-014 2.38542e-014
rhumerus -19.1939 -16.8781 -83.3739
rradius 26.3139
rwrist 31.0707
rhand -18.1295 -26.7516
rfingers 7.12502
rthumb 8.14533 -56.5746
lclavicle -1.38155e-014 2.38542e-014
lhumerus -15.9379 -1.57011 88.9195
lradius 19.7325
lwrist 0.786942
lhand -23.4556 -3.4244
lfingers 7.12502
lthumb 3.00314 26.5342
rfemur -14.1479 -2.31308 19.0598
rtibia 21.5662
rfoot -13.3881 -2.40725
rtoes 5.51262
lfemur -13.5903 8.04709 -17.3634
ltibia 18.728
lfoot -10.4529 3.84874
ltoes -11.8733
53
root 0.348946 17.5273 -14.3146 6.66254 -0.0935693 -1.46781
lowerback -1.79192 -0.746542 0.513841
upperback 5.02047 -1.11485 1.64586
thorax 6.23745 -0.572872 1.34379
lowerneck -11.0272 0.487603 -2.43327
upperneck 36.3329 0.939821 1.11506
head 14.2596 0.213117 1.0271
rclavicle 4.27387e-015 5.36719e-015
rhumerus -19.1927 -16.8385 -83.412
rradius 26.3161
rwrist 31.0617
rhand -18.1122 -26.7489
rfingers 7.12502
rthumb 8.16209 -56.5713
lclavicle 4.27387e-015 5.36719e-015
lhumerus -15.8876 -1.40197 88.8667
lradius 19.616
lwrist 0.623732
lhand -23.4585 -3.39914
lfingers 7.12502
lthumb 3.00031 26.5595
rfemur -14.1565 -2.30938 19.0574
rtibia 21.5563
rfoot -13.3703 -2.40464
rtoes 5.49668
lfemur -13.6179 8.06146 -17.3697
ltibia 18.7581
lfoot -10.4577 3.90177
ltoes -12.0472
